<?xml version="1.0" encoding="UTF-8" standalone="no"?>
<!-- Created with Inkscape (http://www.inkscape.org/) -->

<svg
   width="103.38106mm"
   height="136.4664mm"
   viewBox="0 0 103.38106 136.4664"
   version="1.1"
   id="svg5"
   inkscape:version="1.1 (c68e22c387, 2021-05-23)"
   sodipodi:docname="Logo3-exp2.svg"
   xmlns:inkscape="http://www.inkscape.org/namespaces/inkscape"
   xmlns:sodipodi="http://sodipodi.sourceforge.net/DTD/sodipodi-0.dtd"
   xmlns="http://www.w3.org/2000/svg"
   xmlns:svg="http://www.w3.org/2000/svg">
  <sodipodi:namedview
     id="namedview7"
     pagecolor="#ffffff"
     bordercolor="#666666"
     borderopacity="1.0"
     inkscape:pageshadow="2"
     inkscape:pageopacity="0.0"
     inkscape:pagecheckerboard="false"
     inkscape:document-units="mm"
     showgrid="false"
     inkscape:snap-midpoints="true"
     inkscape:zoom="2"
     inkscape:cx="65.249576"
     inkscape:cy="265.82665"
     inkscape:window-width="2560"
     inkscape:window-height="1387"
     inkscape:window-x="1912"
     inkscape:window-y="-8"
     inkscape:window-maximized="1"
     inkscape:current-layer="layer1"
     inkscape:snap-bbox="false"
     inkscape:bbox-paths="false"
     inkscape:bbox-nodes="false"
     inkscape:object-paths="true"
     inkscape:snap-smooth-nodes="false"
     inkscape:object-nodes="false"
     inkscape:snap-object-midpoints="false"
     showguides="false"
     inkscape:guide-bbox="true"
     inkscape:snap-to-guides="true"
     inkscape:snap-grids="true"
     inkscape:snap-page="false"
     width="209mm"
     fit-margin-top="0.5"
     fit-margin-left="0.5"
     fit-margin-right="0.5"
     fit-margin-bottom="0.5">
    <sodipodi:guide
       position="54.294747,-15.214788"
       orientation="0,0.021482453"
       id="guide16480" />
    <sodipodi:guide
       position="54.346331,17.787862"
       orientation="-111.19978,0"
       id="guide16482" />
    <sodipodi:guide
       position="81.508448,15.715382"
       orientation="0,-0.021482453"
       id="guide16484" />
    <sodipodi:guide
       position="66.663654,1.6367814"
       orientation="1,0"
       id="guide26464" />
    <sodipodi:guide
       position="42.058014,1.6369014"
       orientation="1,0"
       id="guide26466" />
    <sodipodi:guide
       position="91.357382,2.0461115"
       orientation="0,-1"
       id="guide26468" />
    <sodipodi:guide
       position="86.63942,-0.33398856"
       orientation="0,-1"
       id="guide57834" />
  </sodipodi:namedview>
  <defs
     id="defs2" />
  <g
     inkscape:label="Слой 1"
     inkscape:groupmode="layer"
     id="layer1"
     transform="translate(0.25380794,0.17080828)">
    <path
       style="fill:#808080;stroke-width:0.264583"
       d="m 5.3894274,133.72232 c -1.6951854,0 -3.0699604,-1.36948 -3.0699604,-3.05938 v -10.70769 c 0,-9.78429 7.987242,-17.74428 17.805135,-17.74428 h 62.623964 c 9.817629,0 17.805144,7.95999 17.805144,17.74428 v 10.70769 c 0,1.68963 -1.374517,3.05938 -3.069967,3.05938 z"
       id="path15" />
    <path
       style="opacity:0.1;stroke-width:0.264583;enable-background:new"
       d="m 13.837573,130.66294 v -10.70769 c 0,-9.78429 7.987242,-17.74428 17.805135,-17.74428 H 20.124602 c -9.817629,0 -17.805135,7.95999 -17.805135,17.74428 v 10.70769 c 0,1.68963 1.3745104,3.05938 3.0699604,3.05938 H 16.907534 c -1.69545,0 -3.069961,-1.36948 -3.069961,-3.05938 z"
       id="path17" />
    <g
       id="g25"
       transform="matrix(0.26458333,0,0,0.26458333,-16.296616,0.32919172)">
	<circle
   style="fill:#ef645e"
   cx="255.99899"
   cy="445.12701"
   r="13.061"
   id="circle19" />

	<path
   style="fill:#ef645e"
   d="m 269.06,496.327 c 0,-7.214 -5.848,-13.061 -13.061,-13.061 -7.213,0 -13.061,5.847 -13.061,13.061 0,2.945 0.986,5.652 2.63,7.837 h 20.862 c 1.644,-2.186 2.63,-4.893 2.63,-7.837 z"
   id="path21" />

	<path
   style="fill:#ef645e"
   d="m 346.096,369.122 c 0,13.411 -10.909,24.282 -24.366,24.282 H 190.268 c -13.457,0 -24.366,-10.872 -24.366,-24.282 v 0 c 0,-13.411 10.91,-24.283 24.366,-24.283 H 321.73 c 13.458,-10e-4 24.366,10.871 24.366,24.283 z"
   id="path23" />

</g>
    <path
       style="opacity:0.1;stroke-width:0.264583;enable-background:new"
       d="m 33.341333,97.992719 c 0,-3.54833 2.88634,-6.42488 6.446838,-6.42488 H 34.04486 c -3.560497,0 -6.446837,2.87655 -6.446837,6.42488 0,3.548331 2.886604,6.424611 6.446837,6.424611 h 5.743311 c -3.560498,0 -6.446838,-2.87655 -6.446838,-6.424611 z"
       id="path27" />
    <g
       id="g33"
       transform="matrix(0.26458333,0,0,0.26458333,-16.296616,0.32919172)">
	<path
   style="fill:#ef645e"
   d="m 302.348,385.859 c 16.238,16.181 23.198,35.482 15.546,43.108 -7.653,7.626 -27.019,0.691 -43.257,-15.493 -16.237,-16.182 -23.198,-35.482 -15.545,-43.109 7.652,-7.626 27.018,-0.688 43.256,15.494 z"
   id="path29" />

	<path
   style="fill:#ef645e"
   d="m 237.362,413.474 c -16.239,16.182 -35.605,23.118 -43.257,15.493 -7.653,-7.626 -0.693,-26.927 15.545,-43.108 16.238,-16.182 35.604,-23.119 43.257,-15.494 7.652,7.628 0.692,26.927 -15.545,43.109 z"
   id="path31" />

</g>
    <path
       style="fill:#d5e7ed;fill-opacity:1;stroke:none;stroke-width:0.264583px;stroke-linecap:butt;stroke-linejoin:miter;stroke-opacity:1"
       d="M 22.343933,90.103629 51.436585,102.21097 79.343933,90.103629 v -32 h -57 z"
       id="path20799"
       sodipodi:nodetypes="cccccc" />
    <path
       style="opacity:0.1;stroke-width:0.264583;enable-background:new"
       d="m 22.200525,56.611359 5.27e-4,16.91247 c 4.37e-4,14.02821 0.52361,16.53672 0.52361,16.53672 l 28.381942,6.2941 c 0,0 -20.265848,-4.37046 -20.265848,-22.83086 l 0.0013,-16.91296"
       id="path39"
       sodipodi:nodetypes="cscccc" />
    <path
       style="fill:#808080;stroke-width:0.264583"
       d="m 89.517666,21.826323 c 0,-6.436254 -5.235575,-11.654367 -11.694319,-11.654367 -1.62507,0 -3.172354,0.330994 -4.578879,0.927894 C 71.931341,6.0952567 67.364104,2.4024667 61.93115,2.4024667 c -4.488657,0 -8.384911,2.522008 -10.344944,6.220089 -1.960033,-3.698081 -5.856023,-6.219824 -10.344679,-6.219824 -5.476875,0 -10.072952,3.75285 -11.343746,8.8188273 -1.477433,-0.671778 -3.11785,-1.049073 -4.84796,-1.049073 -6.458479,0 -11.694319,5.217847 -11.694319,11.654366 0,5.457031 3.764227,10.036704 8.845815,11.304588 V 56.611089 H 80.672381 V 33.13144 c 5.081058,-1.268413 8.845285,-5.847821 8.845285,-11.305117 z"
       id="path43" />
    <rect
       x="22.200525"
       y="49.12471"
       style="fill:#ef645e;stroke-width:0.264583"
       width="58.471859"
       height="7.48665"
       id="rect45" />
    <path
       style="opacity:0.1;stroke-width:0.264583;enable-background:new"
       d="m 21.996265,21.826323 c 0,-4.914635 3.054085,-9.115689 7.372879,-10.828867 -1.336675,-0.530754 -2.793206,-0.825235 -4.319323,-0.825235 -6.458479,0 -11.694319,5.217848 -11.694319,11.654367 0,5.457031 3.764227,10.036704 8.845815,11.304587 v 23.479654 h 8.640762 V 33.131175 C 25.760227,31.863027 21.996265,27.283619 21.996265,21.826323 Z"
       id="path47" />
    <rect
       x="22.200525"
       y="49.12471"
       style="opacity:0.1;stroke-width:0.264583;enable-background:new"
       width="8.6394396"
       height="7.48665"
       id="rect49" />
    <circle
       style="opacity:1;fill:#000000;fill-opacity:1;stroke:none;stroke-width:0.264583"
       id="path26500"
       cx="39.148136"
       cy="76.204933"
       r="5.1705647" />
    <path
       d="m 39.142323,79.647569 c 1.145117,0 2.073539,-0.92842 2.073539,-2.07354 v -2.73817 c 0,-1.14512 -0.928422,-2.07354 -2.073539,-2.07354 -1.145117,0 -2.07354,0.92842 -2.07354,2.07354 v 2.73844 c 2.65e-4,1.14511 0.928423,2.07327 2.07354,2.07327 z"
       id="path51"
       style="fill:#84d2ed;fill-opacity:1;stroke-width:0.264583" />
    <circle
       style="opacity:1;fill:#000000;fill-opacity:1;stroke:none;stroke-width:0.264583"
       id="circle32310"
       cx="63.721313"
       cy="76.204933"
       r="5.1705647" />
    <path
       d="m 63.730581,79.647569 c 1.145117,0 2.073539,-0.92842 2.073539,-2.07354 v -2.73817 c 0,-1.14512 -0.928422,-2.07354 -2.073539,-2.07354 -1.145117,0 -2.07354,0.92842 -2.07354,2.07354 v 2.73844 c 0,1.14511 0.928423,2.07327 2.07354,2.07327 z"
       id="path53"
       style="fill:#84d2ed;fill-opacity:1;stroke-width:0.264583" />
    <path
       d="m 51.436452,89.614159 c 2.64e-4,0 0,0 0,0 2.35241,0 4.564327,-0.91625 6.227498,-2.57969 0.809625,-0.80962 0.809625,-2.12275 0,-2.93211 -0.80989,-0.81015 -2.122752,-0.80989 -2.932377,0 -0.880269,0.88027 -2.050521,1.36499 -3.295121,1.36499 -1.2446,0 -2.414852,-0.48472 -3.295121,-1.36499 -0.809889,-0.80989 -2.122752,-0.80989 -2.932112,0 -0.80989,0.80963 -0.80989,2.12275 0,2.93211 1.66317,1.6637 3.874823,2.57969 6.227233,2.57969 z"
       id="path55"
       style="stroke-width:0.264583" />
    <path
       d="m 45.907189,118.10238 c 0,3.04879 2.480469,5.52926 5.529263,5.52926 3.048794,0 5.529262,-2.48047 5.529262,-5.52926 0,-3.0488 -2.480468,-5.52927 -5.529262,-5.52927 -3.048794,0 -5.529263,2.48021 -5.529263,5.52927 z m 6.911446,0 c 0,0.76226 -0.620183,1.38218 -1.382183,1.38218 -0.762265,0 -1.382183,-0.62018 -1.382183,-1.38218 0,-0.76227 0.620183,-1.38245 1.382183,-1.38245 0.762264,0 1.382183,0.62018 1.382183,1.38245 z"
       id="path57"
       style="stroke-width:0.264583" />
    <path
       d="M 82.745933,88.103629 V 34.650412 c 5.281348,-2.006335 8.845803,-7.068079 8.845803,-12.824089 0,-7.569465 -6.176169,-13.7276423 -13.767858,-13.7276423 -1.123686,0 -2.227792,0.133086 -3.300942,0.397405 -2.174346,-4.89929 -7.079985,-8.16689398 -12.591785,-8.16689398 -4.021402,0 -7.764463,1.73302098 -10.344944,4.66751498 C 49.00599,2.0622127 45.26293,0.32919172 41.241528,0.32919172 c -5.556779,0 -10.468504,3.29326898 -12.622741,8.23700798 -1.157553,-0.310621 -2.351088,-0.467254 -3.56923,-0.467254 -7.591689,0 -13.767858,6.1581773 -13.767858,13.7276423 0,5.75601 3.564467,10.817754 8.845815,12.824089 v 4.107392 c 0,1.14512 0.928423,2.07354 2.073539,2.07354 1.145117,0 2.07354,-0.92842 2.07354,-2.07354 v -3.553355 h 4.768056 c 1.145117,0 2.07354,-0.928422 2.07354,-2.073539 0,-1.145117 -0.928423,-2.07354 -2.07354,-2.07354 H 22.47622 c -4.160838,-1.145381 -7.047177,-4.906697 -7.047177,-9.231047 0,-5.282936 4.315883,-9.580827 9.620779,-9.580827 0.855398,0 1.693598,0.111125 2.505869,0.3302 -0.05292,0.490273 -0.08149,0.98425 -0.08149,1.481137 0,1.145117 0.928423,2.07354 2.07354,2.07354 1.145116,0 2.073539,-0.928423 2.073539,-2.07354 0,-0.813329 0.105833,-1.615017 0.306652,-2.392892 h -0.0016 c 1.092464,-4.2351853 4.913312,-7.1879353 9.315714,-7.1879353 3.577696,0 6.839744,1.960827 8.51244,5.117571 0.359568,0.6783923 1.064418,1.1025193 1.832239,1.1025193 0.767821,0 1.472406,-0.424127 1.831711,-1.1025193 1.673489,-3.156744 4.935537,-5.117571 8.513233,-5.117571 4.375679,0 8.202877,2.940579 9.308041,7.1503653 l 0.01006,0.03757 c 0.200554,0.776288 0.302947,1.576653 0.302947,2.392892 0,1.145117 0.928423,2.07354 2.07354,2.07354 1.145117,0 2.07354,-0.928423 2.07354,-2.07354 0,-0.522817 -0.03228,-1.040606 -0.09049,-1.553898 0.72046,-0.169069 1.4605,-0.257439 2.214827,-0.257439 5.304631,0 9.620779,4.297891 9.620779,9.580827 0,4.32435 -2.886604,8.085666 -7.047177,9.231047 H 69.130727 c -1.145117,0 -2.07354,0.928423 -2.07354,2.07354 0,1.145117 0.928423,2.073539 2.07354,2.073539 H 78.59937 V 47.051699 H 65.122025 v -4.50215 c 0,-1.14512 -0.928423,-2.07354 -2.07354,-2.07354 -1.145117,0 -2.073539,0.92842 -2.073539,2.07354 v 4.50215 h -7.464425 v -4.50215 c 0,-1.14512 -0.928423,-2.07354 -2.07354,-2.07354 -1.145117,0 -2.073539,0.92842 -2.073539,2.07354 v 4.50215 h -7.464161 v -4.50215 c 0,-1.14512 -0.928423,-2.07354 -2.073539,-2.07354 -1.145117,0 -2.07354,0.92842 -2.07354,2.07354 v 4.50215 h -13.47761 v -0.82947 c 0,-1.14512 -0.928423,-2.07354 -2.07354,-2.07354 -1.145116,0 -2.073119,0.92842 -2.073119,2.07354 -7.2e-5,9.10052 0,41.8814 0,41.8814 0,0 0.280832,5.68513 7.177461,5.68513 -2.073523,2.14847 -2.164514,3.77425 -1.503892,6.348671 h -5.6769 c -10.9608931,0 -19.87840994,8.89027 -19.87840994,19.81756 v 10.70769 c 0,2.83024 2.30743114,5.13291 5.14323534,5.13291 H 97.483473 c 2.836067,0 5.143247,-2.30267 5.143247,-5.13291 v -2.88423 c 0,-1.14511 -0.92816,-2.07354 -2.07328,-2.07354 -1.145117,0 -2.073547,0.92843 -2.073547,2.07354 v 2.88449 c 0,0.54346 -0.44714,0.98584 -0.99642,0.98584 H 63.186068 v -15.26963 c 0.813065,0.22066 1.596232,0.34051 2.327275,0.34051 1.526646,0 2.827602,-0.49239 3.763169,-1.42425 0.93689,-0.93398 1.432454,-2.23414 1.432454,-3.76026 0,-1.52347 -0.510116,-3.27078 -1.427691,-5.05671 2.020887,-0.1061 3.856037,-0.91943 5.264414,-2.19393 h 8.202877 c 8.674365,0 15.731597,7.02998 15.731597,15.67074 0,1.14512 0.92842,2.07354 2.073547,2.07354 1.14511,0 2.07354,-0.92842 2.07354,-2.07354 0,-10.92755 -8.917261,-19.81755 -19.878419,-19.81755 h -5.6769 c 0.686566,-3.026421 0.08736,-4.918681 -1.503892,-6.348681 6.656416,0 7.177894,-5.68539 7.177894,-5.68539 z M 66.349162,112.35801 c -0.137054,0.13679 -0.441854,0.2151 -0.835819,0.2151 -1.669256,0 -4.691856,-1.33402 -7.682177,-4.31376 -1.797843,-1.79176 -2.99376,-3.59172 -3.665008,-5.10487 l 4.135702,4.12115 c 0.404548,0.40296 0.933979,0.60483 1.463675,0.60483 0.531548,0 1.063625,-0.20346 1.468967,-0.60986 0.808302,-0.81121 0.805921,-2.12407 -0.0053,-2.93211 l -3.847306,-3.83408 c 0.0717,-0.013 0.143139,-0.0246 0.214842,-0.0384 1.412345,0.69797 3.02895,1.81901 4.639204,3.42397 2.988204,2.97815 4.325937,5.98567 4.325937,7.64566 -2.64e-4,0.38788 -0.07752,0.68766 -0.212725,0.82233 z m 2.478617,-10.01422 h -2.372254 c -0.407194,-0.47281 -0.837407,-0.93794 -1.29249,-1.39144 -0.724694,-0.72205 -1.478756,-1.383511 -2.246312,-1.980671 2.962275,-1.10755 5.801518,-2.64742 8.37856,-4.56883 1.149879,0.78476 1.906323,2.10053 1.906323,3.58934 -2.65e-4,2.399771 -1.962415,4.351601 -4.373827,4.351601 z M 24.274327,51.198249 h 54.323985 v 3.33878 H 24.274327 Z m 54.324606,36.90538 -27.141538,8.25102 -27.183071,-8.25102 3e-6,-29.41953 54.32425,-2.6e-4 v 0 z M 40.636951,103.88975 c 1.610519,-1.60522 3.226594,-2.726 4.63894,-3.42397 0.0717,0.0135 0.143139,0.0254 0.215106,0.0384 l -3.847306,3.83407 c -0.811213,0.80831 -0.813329,2.12117 -0.0053,2.93212 0.405077,0.40666 0.93689,0.60986 1.468967,0.60986 0.529431,0 1.059127,-0.20161 1.463675,-0.60484 l 4.135702,-4.12141 c -0.670984,1.51315 -1.867165,3.31337 -3.665009,5.10487 -2.99032,2.98027 -6.012656,4.31429 -7.682177,4.31429 -0.393964,0 -0.6985,-0.0783 -0.835818,-0.21484 -0.135202,-0.13467 -0.21299,-0.43471 -0.21299,-0.82285 5.29e-4,-1.65973 1.337998,-4.66778 4.326202,-7.64567 z m -6.591829,-1.54596 c -2.411677,0 -4.373298,-1.95183 -4.373298,-4.351331 0,-1.48908 0.756444,-2.80459 1.906323,-3.58934 2.576513,1.9214 5.416021,3.46128 8.378296,4.56882 -0.767556,0.59717 -1.521619,1.258101 -2.246313,1.980671 -0.455083,0.4535 -0.885296,0.9189 -1.292489,1.39145 h -2.372254 v -2.7e-4 z m 16.008879,29.30525 c 0,-0.76226 0.620183,-1.38218 1.382183,-1.38218 0.762265,0 1.382184,0.62018 1.382184,1.38218 z m 8.98525,0 h -2.07354 c 0,-3.04879 -2.480468,-5.52926 -5.529262,-5.52926 -3.048794,0 -5.529263,2.48047 -5.529263,5.52926 H 5.3894274 c -0.549275,0 -0.9964208,-0.44238 -0.9964208,-0.98583 v -10.70769 c 0,-8.64076 7.0569664,-15.67074 15.7315954,-15.67074 h 8.202877 c 1.408642,1.27423 3.243527,2.08756 5.26415,2.19392 -0.91731,1.78594 -1.427427,3.53325 -1.427427,5.05672 0,1.52612 0.4953,2.82628 1.432719,3.76026 0.935302,0.93186 2.236258,1.42425 3.762904,1.42425 3.125523,0 7.190846,-2.1164 10.609527,-5.52344 1.389856,-1.3851 2.560902,-2.87708 3.467364,-4.3696 0.906198,1.49225 2.077509,2.9845 3.467365,4.3696 1.313127,1.30836 2.721504,2.42437 4.135437,3.30544 v 17.14711 z"
       style="stroke-width:0.264583"
       id="path59"
       sodipodi:nodetypes="ccccsscscscsscssscssscsscsssccscscsccssscsscssscccsssccsssccsssccccccscsssssssssssccscsccsssccccssscccscccccccsscccccscccccccsccccccssccccsccccccssssccccccsccccccscssssccssss" />
    <g
       id="g61"
       transform="matrix(0.26458333,0,0,0.26458333,-16.296616,0.32919172)">
</g>
    <g
       id="g63"
       transform="matrix(0.26458333,0,0,0.26458333,-16.296616,0.32919172)">
</g>
    <g
       id="g65"
       transform="matrix(0.26458333,0,0,0.26458333,-16.296616,0.32919172)">
</g>
    <g
       id="g67"
       transform="matrix(0.26458333,0,0,0.26458333,-16.296616,0.32919172)">
</g>
    <g
       id="g69"
       transform="matrix(0.26458333,0,0,0.26458333,-16.296616,0.32919172)">
</g>
    <g
       id="g71"
       transform="matrix(0.26458333,0,0,0.26458333,-16.296616,0.32919172)">
</g>
    <g
       id="g73"
       transform="matrix(0.26458333,0,0,0.26458333,-16.296616,0.32919172)">
</g>
    <g
       id="g75"
       transform="matrix(0.26458333,0,0,0.26458333,-16.296616,0.32919172)">
</g>
    <g
       id="g77"
       transform="matrix(0.26458333,0,0,0.26458333,-16.296616,0.32919172)">
</g>
    <g
       id="g79"
       transform="matrix(0.26458333,0,0,0.26458333,-16.296616,0.32919172)">
</g>
    <g
       id="g81"
       transform="matrix(0.26458333,0,0,0.26458333,-16.296616,0.32919172)">
</g>
    <g
       id="g83"
       transform="matrix(0.26458333,0,0,0.26458333,-16.296616,0.32919172)">
</g>
    <g
       id="g85"
       transform="matrix(0.26458333,0,0,0.26458333,-16.296616,0.32919172)">
</g>
    <g
       id="g87"
       transform="matrix(0.26458333,0,0,0.26458333,-16.296616,0.32919172)">
</g>
    <g
       id="g89"
       transform="matrix(0.26458333,0,0,0.26458333,-16.296616,0.32919172)">
</g>
    <path
       id="rect52382"
       style="opacity:1;fill:#000000;fill-opacity:1;stroke:none;stroke-width:0.207076"
       d="m 89.885617,64.550459 a 4.7408957,4.7408957 0 0 0 -2.906311,4.29575 l -8.369473,3.50396 1.468199,3.50691 8.369474,-3.50397 a 4.7408957,4.7408957 0 0 0 5.09992,0.94386 4.7408957,4.7408957 0 0 0 2.54201,-6.20429 4.7408957,4.7408957 0 0 0 -6.203819,-2.54222 z" />
    <ellipse
       style="opacity:1;fill:#ef645e;fill-opacity:1;stroke:none;stroke-width:0.121775"
       id="circle52496"
       cy="98.998802"
       cx="57.991791"
       transform="matrix(0.9224191,-0.38619038,0.38617214,0.92242673,0,0)"
       rx="3.0000124"
       ry="3.0000708" />
    <path
       id="path57731"
       style="opacity:1;fill:#000000;fill-opacity:1;stroke:none;stroke-width:0.207076"
       d="m 12.987731,64.550459 a 4.7408957,4.7408957 0 0 1 2.906311,4.29575 l 8.369473,3.50396 -1.468199,3.50691 -8.369474,-3.50397 a 4.7408957,4.7408957 0 0 1 -5.0999201,0.94386 4.7408957,4.7408957 0 0 1 -2.5420042,-6.20429 4.7408957,4.7408957 0 0 1 6.2038133,-2.54222 z" />
    <circle
       style="opacity:1;fill:#ef645e;fill-opacity:1;stroke:none;stroke-width:0.121774"
       id="circle57733"
       cy="59.267925"
       cx="-36.906582"
       r="3"
       transform="matrix(-0.92242291,-0.38618126,-0.38618126,0.92242291,0,0)" />
  </g>
</svg>
